<?xml version="1.0" encoding="UTF-8" standalone="no"?><svg xmlns="http://www.w3.org/2000/svg" xmlns:xlink="http://www.w3.org/1999/xlink" contentScriptType="application/ecmascript" contentStyleType="text/css" height="859px" preserveAspectRatio="none" style="width:820px;height:859px;background:#FFFFFF;" version="1.1" viewBox="0 0 820 859" width="820px" zoomAndPan="magnify"><defs><filter height="300%" id="f12icycmy6ytb3" width="300%" x="-1" y="-1"><feGaussianBlur result="blurOut" stdDeviation="2.0"/><feColorMatrix in="blurOut" result="blurOut2" type="matrix" values="0 0 0 0 0 0 0 0 0 0 0 0 0 0 0 0 0 0 .4 0"/><feOffset dx="4.0" dy="4.0" in="blurOut2" result="blurOut3"/><feBlend in="SourceGraphic" in2="blurOut3" mode="normal"/></filter></defs><g><!--MD5=[18eee71c88ab61f27581b8cbdd3ef5ee]
class Color--><rect codeLine="1" fill="#FEFECE" filter="url(#f12icycmy6ytb3)" height="124.8281" id="Color" style="stroke:#A80036;stroke-width:1.5;" width="72" x="325.5" y="7"/><ellipse cx="344.1" cy="23" fill="#EB937F" rx="11" ry="11" style="stroke:#A80036;stroke-width:1.0;"/><path d="M348.2094,29 L340.4906,29 L340.4906,16.6094 L348.2094,16.6094 L348.2094,18.7656 L342.9438,18.7656 L342.9438,21.4375 L347.7094,21.4375 L347.7094,23.5938 L342.9438,23.5938 L342.9438,26.8438 L348.2094,26.8438 L348.2094,29 Z " fill="#000000"/><text fill="#000000" font-family="sans-serif" font-size="12" lengthAdjust="spacing" textLength="32" x="358.9" y="27.1543">Color</text><line style="stroke:#A80036;stroke-width:1.5;" x1="326.5" x2="396.5" y1="39" y2="39"/><text fill="#000000" font-family="sans-serif" font-size="11" lengthAdjust="spacing" textLength="30" x="331.5" y="53.2104">White</text><text fill="#000000" font-family="sans-serif" font-size="11" lengthAdjust="spacing" textLength="21" x="331.5" y="66.0151">Red</text><text fill="#000000" font-family="sans-serif" font-size="11" lengthAdjust="spacing" textLength="35" x="331.5" y="78.8198">Green</text><text fill="#000000" font-family="sans-serif" font-size="11" lengthAdjust="spacing" textLength="25" x="331.5" y="91.6245">Blue</text><text fill="#000000" font-family="sans-serif" font-size="11" lengthAdjust="spacing" textLength="36" x="331.5" y="104.4292">Yellow</text><text fill="#000000" font-family="sans-serif" font-size="11" lengthAdjust="spacing" textLength="60" x="331.5" y="117.2339">FirstPlayer</text><line style="stroke:#A80036;stroke-width:1.5;" x1="326.5" x2="396.5" y1="123.8281" y2="123.8281"/><!--MD5=[15babc946799f34568685750bdc53436]
class TileHolder--><rect codeLine="10" fill="#FEFECE" filter="url(#f12icycmy6ytb3)" height="99.2188" id="TileHolder" style="stroke:#A80036;stroke-width:1.5;" width="218" x="90.5" y="351.5"/><ellipse cx="164.25" cy="367.5" fill="#B4A7E5" rx="11" ry="11" style="stroke:#A80036;stroke-width:1.0;"/><path d="M160.1719,363.2656 L160.1719,361.1094 L167.5625,361.1094 L167.5625,363.2656 L165.0938,363.2656 L165.0938,371.3438 L167.5625,371.3438 L167.5625,373.5 L160.1719,373.5 L160.1719,371.3438 L162.6406,371.3438 L162.6406,363.2656 L160.1719,363.2656 Z " fill="#000000"/><text fill="#000000" font-family="sans-serif" font-size="12" font-style="italic" lengthAdjust="spacing" textLength="62" x="184.75" y="371.6543">TileHolder</text><line style="stroke:#A80036;stroke-width:1.5;" x1="91.5" x2="307.5" y1="383.5" y2="383.5"/><line style="stroke:#A80036;stroke-width:1.5;" x1="91.5" x2="307.5" y1="391.5" y2="391.5"/><ellipse cx="101.5" cy="402.5" fill="#84BE84" rx="3" ry="3" style="stroke:#038048;stroke-width:1.0;"/><text fill="#000000" font-family="sans-serif" font-size="11" lengthAdjust="spacing" textLength="93" x="110.5" y="405.7104">getTiles() : Tile[]</text><ellipse cx="101.5" cy="415.3047" fill="#84BE84" rx="3" ry="3" style="stroke:#038048;stroke-width:1.0;"/><text fill="#000000" font-family="sans-serif" font-size="11" lengthAdjust="spacing" textLength="192" x="110.5" y="418.5151">removeByColor(Color color) : void</text><ellipse cx="101.5" cy="428.1094" fill="#84BE84" rx="3" ry="3" style="stroke:#038048;stroke-width:1.0;"/><text fill="#000000" font-family="sans-serif" font-size="11" lengthAdjust="spacing" textLength="172" x="110.5" y="431.3198">getByColor(Color color) : Tile[]</text><ellipse cx="101.5" cy="440.9141" fill="#84BE84" rx="3" ry="3" style="stroke:#038048;stroke-width:1.0;"/><text fill="#000000" font-family="sans-serif" font-size="11" lengthAdjust="spacing" textLength="174" x="110.5" y="444.1245">putToExcept(Color color) : void</text><!--MD5=[18e4d9ca2a6cdced7b66e5fef94ef6f6]
class Tile--><rect codeLine="17" fill="#FEFECE" filter="url(#f12icycmy6ytb3)" height="73.6094" id="Tile" style="stroke:#A80036;stroke-width:1.5;" width="124" x="299.5" y="192"/><ellipse cx="346.75" cy="208" fill="#ADD1B2" rx="11" ry="11" style="stroke:#A80036;stroke-width:1.0;"/><path d="M349.7188,213.6406 Q349.1406,213.9375 348.5,214.0781 Q347.8594,214.2344 347.1563,214.2344 Q344.6563,214.2344 343.3281,212.5938 Q342.0156,210.9375 342.0156,207.8125 Q342.0156,204.6875 343.3281,203.0313 Q344.6563,201.375 347.1563,201.375 Q347.8594,201.375 348.5,201.5313 Q349.1563,201.6875 349.7188,201.9844 L349.7188,204.7031 Q349.0938,204.125 348.5,203.8594 Q347.9063,203.5781 347.2813,203.5781 Q345.9375,203.5781 345.25,204.6563 Q344.5625,205.7188 344.5625,207.8125 Q344.5625,209.9063 345.25,210.9844 Q345.9375,212.0469 347.2813,212.0469 Q347.9063,212.0469 348.5,211.7813 Q349.0938,211.5 349.7188,210.9219 L349.7188,213.6406 Z " fill="#000000"/><text fill="#000000" font-family="sans-serif" font-size="12" lengthAdjust="spacing" textLength="21" x="367.25" y="212.1543">Tile</text><line style="stroke:#A80036;stroke-width:1.5;" x1="300.5" x2="422.5" y1="224" y2="224"/><line style="stroke:#A80036;stroke-width:1.5;" x1="300.5" x2="422.5" y1="232" y2="232"/><ellipse cx="310.5" cy="243" fill="#84BE84" rx="3" ry="3" style="stroke:#038048;stroke-width:1.0;"/><text fill="#000000" font-family="sans-serif" font-size="11" lengthAdjust="spacing" textLength="98" x="319.5" y="246.2104">getColor() : Color</text><ellipse cx="310.5" cy="255.8047" fill="#84BE84" rx="3" ry="3" style="stroke:#038048;stroke-width:1.0;"/><text fill="#000000" font-family="sans-serif" font-size="11" lengthAdjust="spacing" textLength="46" x="319.5" y="259.0151">equals()</text><!--MD5=[ce71e8b4822a13f5ea72e94958aa0250]
class Bag--><rect codeLine="21" fill="#FEFECE" filter="url(#f12icycmy6ytb3)" height="60.8047" id="Bag" style="stroke:#A80036;stroke-width:1.5;" width="224" x="286.5" y="536"/><ellipse cx="382.25" cy="552" fill="#ADD1B2" rx="11" ry="11" style="stroke:#A80036;stroke-width:1.0;"/><path d="M385.2188,557.6406 Q384.6406,557.9375 384,558.0781 Q383.3594,558.2344 382.6563,558.2344 Q380.1563,558.2344 378.8281,556.5938 Q377.5156,554.9375 377.5156,551.8125 Q377.5156,548.6875 378.8281,547.0313 Q380.1563,545.375 382.6563,545.375 Q383.3594,545.375 384,545.5313 Q384.6563,545.6875 385.2188,545.9844 L385.2188,548.7031 Q384.5938,548.125 384,547.8594 Q383.4063,547.5781 382.7813,547.5781 Q381.4375,547.5781 380.75,548.6563 Q380.0625,549.7188 380.0625,551.8125 Q380.0625,553.9063 380.75,554.9844 Q381.4375,556.0469 382.7813,556.0469 Q383.4063,556.0469 384,555.7813 Q384.5938,555.5 385.2188,554.9219 L385.2188,557.6406 Z " fill="#000000"/><text fill="#000000" font-family="sans-serif" font-size="12" lengthAdjust="spacing" textLength="24" x="402.75" y="556.1543">Bag</text><line style="stroke:#A80036;stroke-width:1.5;" x1="287.5" x2="509.5" y1="568" y2="568"/><line style="stroke:#A80036;stroke-width:1.5;" x1="287.5" x2="509.5" y1="576" y2="576"/><ellipse cx="297.5" cy="587" fill="#84BE84" rx="3" ry="3" style="stroke:#038048;stroke-width:1.0;"/><text fill="#000000" font-family="sans-serif" font-size="11" lengthAdjust="spacing" textLength="198" x="306.5" y="590.2104">shuffleTo(ManufactureDisk[]) : void</text><!--MD5=[2c1704b80ec909e0cd008c686e8967f3]
class ManufactureDisk--><rect codeLine="24" fill="#FEFECE" filter="url(#f12icycmy6ytb3)" height="48" id="ManufactureDisk" style="stroke:#A80036;stroke-width:1.5;" width="137" x="7" y="542.5"/><ellipse cx="22" cy="558.5" fill="#ADD1B2" rx="11" ry="11" style="stroke:#A80036;stroke-width:1.0;"/><path d="M24.9688,564.1406 Q24.3906,564.4375 23.75,564.5781 Q23.1094,564.7344 22.4063,564.7344 Q19.9063,564.7344 18.5781,563.0938 Q17.2656,561.4375 17.2656,558.3125 Q17.2656,555.1875 18.5781,553.5313 Q19.9063,551.875 22.4063,551.875 Q23.1094,551.875 23.75,552.0313 Q24.4063,552.1875 24.9688,552.4844 L24.9688,555.2031 Q24.3438,554.625 23.75,554.3594 Q23.1563,554.0781 22.5313,554.0781 Q21.1875,554.0781 20.5,555.1563 Q19.8125,556.2188 19.8125,558.3125 Q19.8125,560.4063 20.5,561.4844 Q21.1875,562.5469 22.5313,562.5469 Q23.1563,562.5469 23.75,562.2813 Q24.3438,562 24.9688,561.4219 L24.9688,564.1406 Z " fill="#000000"/><text fill="#000000" font-family="sans-serif" font-size="12" lengthAdjust="spacing" textLength="105" x="36" y="562.6543">ManufactureDisk</text><line style="stroke:#A80036;stroke-width:1.5;" x1="8" x2="143" y1="574.5" y2="574.5"/><line style="stroke:#A80036;stroke-width:1.5;" x1="8" x2="143" y1="582.5" y2="582.5"/><!--MD5=[0c7477c62708be7b08f622edccf63889]
class Middle--><rect codeLine="27" fill="#FEFECE" filter="url(#f12icycmy6ytb3)" height="48" id="Middle" style="stroke:#A80036;stroke-width:1.5;" width="72" x="179.5" y="542.5"/><ellipse cx="194.5" cy="558.5" fill="#ADD1B2" rx="11" ry="11" style="stroke:#A80036;stroke-width:1.0;"/><path d="M197.4688,564.1406 Q196.8906,564.4375 196.25,564.5781 Q195.6094,564.7344 194.9063,564.7344 Q192.4063,564.7344 191.0781,563.0938 Q189.7656,561.4375 189.7656,558.3125 Q189.7656,555.1875 191.0781,553.5313 Q192.4063,551.875 194.9063,551.875 Q195.6094,551.875 196.25,552.0313 Q196.9063,552.1875 197.4688,552.4844 L197.4688,555.2031 Q196.8438,554.625 196.25,554.3594 Q195.6563,554.0781 195.0313,554.0781 Q193.6875,554.0781 193,555.1563 Q192.3125,556.2188 192.3125,558.3125 Q192.3125,560.4063 193,561.4844 Q193.6875,562.5469 195.0313,562.5469 Q195.6563,562.5469 196.25,562.2813 Q196.8438,562 197.4688,561.4219 L197.4688,564.1406 Z " fill="#000000"/><text fill="#000000" font-family="sans-serif" font-size="12" lengthAdjust="spacing" textLength="40" x="208.5" y="562.6543">Middle</text><line style="stroke:#A80036;stroke-width:1.5;" x1="180.5" x2="250.5" y1="574.5" y2="574.5"/><line style="stroke:#A80036;stroke-width:1.5;" x1="180.5" x2="250.5" y1="582.5" y2="582.5"/><!--MD5=[2cb47ba637a0d19583e6199456f6ad0b]
class Player--><rect codeLine="30" fill="#FEFECE" filter="url(#f12icycmy6ytb3)" height="150.4375" id="Player" style="stroke:#A80036;stroke-width:1.5;" width="391" x="415" y="326"/><ellipse cx="587.25" cy="342" fill="#ADD1B2" rx="11" ry="11" style="stroke:#A80036;stroke-width:1.0;"/><path d="M590.2188,347.6406 Q589.6406,347.9375 589,348.0781 Q588.3594,348.2344 587.6563,348.2344 Q585.1563,348.2344 583.8281,346.5938 Q582.5156,344.9375 582.5156,341.8125 Q582.5156,338.6875 583.8281,337.0313 Q585.1563,335.375 587.6563,335.375 Q588.3594,335.375 589,335.5313 Q589.6563,335.6875 590.2188,335.9844 L590.2188,338.7031 Q589.5938,338.125 589,337.8594 Q588.4063,337.5781 587.7813,337.5781 Q586.4375,337.5781 585.75,338.6563 Q585.0625,339.7188 585.0625,341.8125 Q585.0625,343.9063 585.75,344.9844 Q586.4375,346.0469 587.7813,346.0469 Q588.4063,346.0469 589,345.7813 Q589.5938,345.5 590.2188,344.9219 L590.2188,347.6406 Z " fill="#000000"/><text fill="#000000" font-family="sans-serif" font-size="12" lengthAdjust="spacing" textLength="38" x="607.75" y="346.1543">Player</text><line style="stroke:#A80036;stroke-width:1.5;" x1="416" x2="805" y1="358" y2="358"/><polygon fill="none" points="426,364,430,368,426,372,422,368" style="stroke:#B38D22;stroke-width:1.0;"/><text fill="#000000" font-family="sans-serif" font-size="11" lengthAdjust="spacing" textLength="145" x="435" y="372.2104">firstFromMiddle : boolean</text><polygon fill="none" points="426,376.8047,430,380.8047,426,384.8047,422,380.8047" style="stroke:#B38D22;stroke-width:1.0;"/><text fill="#000000" font-family="sans-serif" font-size="11" lengthAdjust="spacing" textLength="61" x="435" y="385.0151">points : int</text><line style="stroke:#A80036;stroke-width:1.5;" x1="416" x2="805" y1="391.6094" y2="391.6094"/><ellipse cx="426" cy="402.6094" fill="#84BE84" rx="3" ry="3" style="stroke:#038048;stroke-width:1.0;"/><text fill="#000000" font-family="sans-serif" font-size="11" lengthAdjust="spacing" textLength="110" x="435" y="405.8198">getWall() : Tile[5][5]</text><ellipse cx="426" cy="415.4141" fill="#84BE84" rx="3" ry="3" style="stroke:#038048;stroke-width:1.0;"/><text fill="#000000" font-family="sans-serif" font-size="11" lengthAdjust="spacing" textLength="151" x="435" y="418.6245">getPatternWall() : Tile[5][5]</text><ellipse cx="426" cy="428.2188" fill="#84BE84" rx="3" ry="3" style="stroke:#038048;stroke-width:1.0;"/><text fill="#000000" font-family="sans-serif" font-size="11" lengthAdjust="spacing" textLength="101" x="435" y="431.4292">getFloor() : Tile[7]</text><ellipse cx="426" cy="441.0234" fill="#84BE84" rx="3" ry="3" style="stroke:#038048;stroke-width:1.0;"/><text fill="#000000" font-family="sans-serif" font-size="11" lengthAdjust="spacing" textLength="87" x="435" y="444.2339">getPoints() : int</text><ellipse cx="426" cy="453.8281" fill="#84BE84" rx="3" ry="3" style="stroke:#038048;stroke-width:1.0;"/><text fill="#000000" font-family="sans-serif" font-size="11" lengthAdjust="spacing" textLength="46" x="435" y="457.0386">equals()</text><ellipse cx="426" cy="466.6328" fill="#84BE84" rx="3" ry="3" style="stroke:#038048;stroke-width:1.0;"/><text fill="#000000" font-family="sans-serif" font-size="11" lengthAdjust="spacing" textLength="365" x="435" y="469.8433">addToPatternWall(TileHolder holder, int rowId, Color color) : void</text><!--MD5=[420782f7c2f0c536da4794c8b41bee93]
class GameEngine--><rect codeLine="41" fill="#FEFECE" filter="url(#f12icycmy6ytb3)" height="188.8516" id="GameEngine" style="stroke:#A80036;stroke-width:1.5;" width="267" x="173" y="657"/><ellipse cx="262.75" cy="673" fill="#ADD1B2" rx="11" ry="11" style="stroke:#A80036;stroke-width:1.0;"/><path d="M265.7188,678.6406 Q265.1406,678.9375 264.5,679.0781 Q263.8594,679.2344 263.1563,679.2344 Q260.6563,679.2344 259.3281,677.5938 Q258.0156,675.9375 258.0156,672.8125 Q258.0156,669.6875 259.3281,668.0313 Q260.6563,666.375 263.1563,666.375 Q263.8594,666.375 264.5,666.5313 Q265.1563,666.6875 265.7188,666.9844 L265.7188,669.7031 Q265.0938,669.125 264.5,668.8594 Q263.9063,668.5781 263.2813,668.5781 Q261.9375,668.5781 261.25,669.6563 Q260.5625,670.7188 260.5625,672.8125 Q260.5625,674.9063 261.25,675.9844 Q261.9375,677.0469 263.2813,677.0469 Q263.9063,677.0469 264.5,676.7813 Q265.0938,676.5 265.7188,675.9219 L265.7188,678.6406 Z " fill="#000000"/><text fill="#000000" font-family="sans-serif" font-size="12" lengthAdjust="spacing" textLength="79" x="283.25" y="677.1543">GameEngine</text><line style="stroke:#A80036;stroke-width:1.5;" x1="174" x2="439" y1="689" y2="689"/><polygon fill="none" points="184,695,188,699,184,703,180,699" style="stroke:#B38D22;stroke-width:1.0;"/><text fill="#000000" font-family="sans-serif" font-size="11" lengthAdjust="spacing" textLength="135" x="193" y="703.2104">startingPlayerIndex : int</text><polygon fill="none" points="184,707.8047,188,711.8047,184,715.8047,180,711.8047" style="stroke:#B38D22;stroke-width:1.0;"/><text fill="#000000" font-family="sans-serif" font-size="11" lengthAdjust="spacing" textLength="121" x="193" y="716.0151">actualPlayerIndex: int</text><line style="stroke:#A80036;stroke-width:1.5;" x1="174" x2="439" y1="722.6094" y2="722.6094"/><ellipse cx="184" cy="733.6094" fill="#84BE84" rx="3" ry="3" style="stroke:#038048;stroke-width:1.0;"/><text fill="#000000" font-family="sans-serif" font-size="11" lengthAdjust="spacing" textLength="123" x="193" y="736.8198">getPlayers() : Player[]</text><ellipse cx="184" cy="746.4141" fill="#84BE84" rx="3" ry="3" style="stroke:#038048;stroke-width:1.0;"/><text fill="#000000" font-family="sans-serif" font-size="11" lengthAdjust="spacing" textLength="241" x="193" y="749.6245">getManufactureDisks() : ManufactureDisk[]</text><ellipse cx="184" cy="759.2188" fill="#84BE84" rx="3" ry="3" style="stroke:#038048;stroke-width:1.0;"/><text fill="#000000" font-family="sans-serif" font-size="11" lengthAdjust="spacing" textLength="176" x="193" y="762.4292">getMiddle() : ManufactureDisk[]</text><ellipse cx="184" cy="772.0234" fill="#84BE84" rx="3" ry="3" style="stroke:#038048;stroke-width:1.0;"/><text fill="#000000" font-family="sans-serif" font-size="11" lengthAdjust="spacing" textLength="82" x="193" y="775.2339">getBag() : Bag</text><ellipse cx="184" cy="784.8281" fill="#84BE84" rx="3" ry="3" style="stroke:#038048;stroke-width:1.0;"/><text fill="#000000" font-family="sans-serif" font-size="11" lengthAdjust="spacing" textLength="60" x="193" y="788.0386">init() : void</text><ellipse cx="184" cy="797.6328" fill="#84BE84" rx="3" ry="3" style="stroke:#038048;stroke-width:1.0;"/><text fill="#000000" font-family="sans-serif" font-size="11" lengthAdjust="spacing" textLength="104" x="193" y="800.8433">startGame() : void</text><ellipse cx="184" cy="810.4375" fill="#84BE84" rx="3" ry="3" style="stroke:#038048;stroke-width:1.0;"/><text fill="#000000" font-family="sans-serif" font-size="11" lengthAdjust="spacing" textLength="111" x="193" y="813.6479">getWinner() : Player</text><ellipse cx="184" cy="823.2422" fill="#84BE84" rx="3" ry="3" style="stroke:#038048;stroke-width:1.0;"/><text fill="#000000" font-family="sans-serif" font-size="11" lengthAdjust="spacing" textLength="151" x="193" y="826.4526">getCurrentPlayer() : Player</text><polygon fill="#FFFF44" points="184,831.0469,188,835.0469,184,839.0469,180,835.0469" style="stroke:#B38D22;stroke-width:1.0;"/><text fill="#000000" font-family="sans-serif" font-size="11" lengthAdjust="spacing" textLength="116" x="193" y="839.2573">checkWin() : boolean</text><!--MD5=[0ba8c4c9cdba0fe53059abd3d8dd2516]
reverse link TileHolder to ManufactureDisk--><path d="M150.37,466.78 C130.15,493.45 108.01,522.63 93.09,542.3 " fill="none" id="TileHolder-backto-ManufactureDisk" style="stroke:#A80036;stroke-width:1.0;stroke-dasharray:7.0,7.0;"/><polygon fill="none" points="144.97,462.32,162.63,450.61,156.12,470.78,144.97,462.32" style="stroke:#A80036;stroke-width:1.0;"/><!--MD5=[0b1de87858dbe4bba9b535e2c659e4f9]
reverse link TileHolder to Middle--><path d="M206.21,470.57 C208.72,496.18 211.4,523.56 213.23,542.3 " fill="none" id="TileHolder-backto-Middle" style="stroke:#A80036;stroke-width:1.0;stroke-dasharray:7.0,7.0;"/><polygon fill="none" points="199.24,471.2,204.26,450.61,213.17,469.84,199.24,471.2" style="stroke:#A80036;stroke-width:1.0;"/><!--MD5=[51508562ba222408d8a4cef34115ebcb]
reverse link Color to Tile--><path codeLine="56" d="M361.5,145.69 C361.5,161.77 361.5,178.05 361.5,191.83 " fill="none" id="Color-backto-Tile" style="stroke:#A80036;stroke-width:1.0;"/><polygon fill="#A80036" points="361.5,132.3,357.5,138.3,361.5,144.3,365.5,138.3,361.5,132.3" style="stroke:#A80036;stroke-width:1.0;"/><text fill="#000000" font-family="sans-serif" font-size="13" lengthAdjust="spacing" textLength="8" x="353.0625" y="152.0726">1</text><text fill="#000000" font-family="sans-serif" font-size="13" lengthAdjust="spacing" textLength="8" x="352.7875" y="180.9867">1</text><!--MD5=[7a13076b165fb5449b0b8025466858fc]
reverse link Player to GameEngine--><path codeLine="57" d="M585.92,488.86 C572.85,524.87 554.07,565.5 528.5,597 C503.99,627.19 472.03,653.94 440.04,676.31 " fill="none" id="Player-backto-GameEngine" style="stroke:#A80036;stroke-width:1.0;"/><polygon fill="#A80036" points="590.31,476.34,584.5509,480.6797,586.3417,487.6649,592.1008,483.3252,590.31,476.34" style="stroke:#A80036;stroke-width:1.0;"/><text fill="#000000" font-family="sans-serif" font-size="13" lengthAdjust="spacing" textLength="8" x="579.9288" y="496.5465">1</text><text fill="#000000" font-family="sans-serif" font-size="13" lengthAdjust="spacing" textLength="36" x="447.8538" y="669.1204">many</text><!--MD5=[df820bcc3099d0c7cd6e468928b53ee6]
reverse link ManufactureDisk to GameEngine--><path codeLine="58" d="M115.22,598.97 C135.71,615.2 161.9,635.95 188.28,656.84 " fill="none" id="ManufactureDisk-backto-GameEngine" style="stroke:#A80036;stroke-width:1.0;"/><polygon fill="#A80036" points="104.76,590.68,106.9829,597.5399,114.1702,598.1264,111.9472,591.2665,104.76,590.68" style="stroke:#A80036;stroke-width:1.0;"/><text fill="#000000" font-family="sans-serif" font-size="13" lengthAdjust="spacing" textLength="8" x="102.9171" y="610.4851">1</text><text fill="#000000" font-family="sans-serif" font-size="13" lengthAdjust="spacing" textLength="36" x="141.425" y="645.7772">many</text><!--MD5=[dc8285ba04bc2ec9e8bd7841c475a94b]
reverse link Tile to Bag--><path codeLine="59" d="M366.97,279.58 C374.77,350.33 388.86,478.07 395.22,535.78 " fill="none" id="Tile-backto-Bag" style="stroke:#A80036;stroke-width:1.0;"/><polygon fill="#A80036" points="365.49,266.22,362.1669,272.6198,366.7963,278.1487,370.1194,271.7489,365.49,266.22" style="stroke:#A80036;stroke-width:1.0;"/><text fill="#000000" font-family="sans-serif" font-size="13" lengthAdjust="spacing" textLength="8" x="357.4883" y="285.737">1</text><text fill="#000000" font-family="sans-serif" font-size="13" lengthAdjust="spacing" textLength="24" x="368.0685" y="524.9979">100</text><!--MD5=[97b61c93558d31f50a0d730fedf34837]
reverse link Tile to TileHolder--><path codeLine="60" d="M317.91,275.74 C295.61,299.14 268.47,327.63 245.79,351.42 " fill="none" id="Tile-backto-TileHolder" style="stroke:#A80036;stroke-width:1.0;"/><polygon fill="#A80036" points="327.14,266.05,320.105,267.6341,318.8615,274.7371,325.8965,273.1531,327.14,266.05" style="stroke:#A80036;stroke-width:1.0;"/><text fill="#000000" font-family="sans-serif" font-size="13" lengthAdjust="spacing" textLength="8" x="312.7866" y="285.5388">1</text><text fill="#000000" font-family="sans-serif" font-size="13" lengthAdjust="spacing" textLength="36" x="213.7683" y="340.454">many</text><!--MD5=[6fde26bd289c9c9dc1838a989aa33f9a]
reverse link Tile to Player--><path codeLine="61" d="M425.11,273.43 C448.49,289.39 475.68,307.95 501.91,325.86 " fill="none" id="Tile-backto-Player" style="stroke:#A80036;stroke-width:1.0;"/><polygon fill="#A80036" points="414.31,266.05,417.0124,272.7356,424.2231,272.8125,421.5207,266.1269,414.31,266.05" style="stroke:#A80036;stroke-width:1.0;"/><text fill="#000000" font-family="sans-serif" font-size="13" lengthAdjust="spacing" textLength="20" x="401.4004" y="285.5388">0.1</text><text fill="#000000" font-family="sans-serif" font-size="13" lengthAdjust="spacing" textLength="36" x="453.8444" y="315.0357">many</text><!--MD5=[271b946e5a8b7a31b76e78ee7f70eaff]
reverse link Bag to GameEngine--><path codeLine="63" d="M377.55,609.17 C370.39,623.4 362.07,639.96 353.7,656.61 " fill="none" id="Bag-backto-GameEngine" style="stroke:#A80036;stroke-width:1.0;"/><polygon fill="#A80036" points="383.51,597.31,377.2402,600.8723,378.1171,608.0299,384.3868,604.4676,383.51,597.31" style="stroke:#A80036;stroke-width:1.0;"/><text fill="#000000" font-family="sans-serif" font-size="13" lengthAdjust="spacing" textLength="8" x="371.7713" y="616.9515">1</text><text fill="#000000" font-family="sans-serif" font-size="13" lengthAdjust="spacing" textLength="8" x="349.0075" y="645.8484">1</text><!--MD5=[5d2a9af8a2d17b1c062ed7abf0055761]
reverse link Middle to GameEngine--><path codeLine="64" d="M232.84,602.36 C240.6,617.98 250.18,637.24 259.82,656.64 " fill="none" id="Middle-backto-GameEngine" style="stroke:#A80036;stroke-width:1.0;"/><polygon fill="#A80036" points="227.03,590.68,226.118,597.8332,232.3702,601.4263,233.2822,594.2731,227.03,590.68" style="stroke:#A80036;stroke-width:1.0;"/><text fill="#000000" font-family="sans-serif" font-size="13" lengthAdjust="spacing" textLength="8" x="220.8654" y="610.4851">1</text><text fill="#000000" font-family="sans-serif" font-size="13" lengthAdjust="spacing" textLength="8" x="247.9398" y="645.8807">1</text><!--MD5=[1795fa4e87e7495172c04e603d9b0729]
@startuml
enum Color{
White
Red
Green
Blue
Yellow
FirstPlayer
}

interface TileHolder{
+getTiles() : Tile[]
+removeByColor(Color color) : void
+getByColor(Color color) : Tile[]
+putToExcept(Color color) : void
}

class Tile{
+getColor() : Color
+equals()
}
class Bag{
+shuffleTo(ManufactureDisk[]) : void
}
class ManufactureDisk implements TileHolder{

}
class Middle implements TileHolder{

}
class Player{
#firstFromMiddle : boolean
#points : int
+getWall() : Tile[5][5]
+getPatternWall() : Tile[5][5]
+getFloor() : Tile[7]
+getPoints() : int
+equals()
+addToPatternWall(TileHolder holder, int rowId, Color color) : void
}

class GameEngine{
#startingPlayerIndex : int
#actualPlayerIndex: int
+getPlayers() : Player[]
+getManufactureDisks() : ManufactureDisk[]
+getMiddle() : ManufactureDisk[]
+getBag() : Bag
+init() : void
+startGame() : void
+getWinner() : Player
+getCurrentPlayer() : Player
#checkWin() : boolean
}


Color "1" *- - "1" Tile
Player "1" *- - "many" GameEngine
ManufactureDisk "1" *- - "many" GameEngine
Tile "1" *- - "100" Bag
Tile "1" *- - "many" TileHolder
Tile "0.1" *- - "many" Player

Bag "1" *- - "1" GameEngine
Middle "1" *- - "1" GameEngine
@enduml

PlantUML version 1.2022.0(Tue Jan 11 16:16:42 UTC 2022)
(GPL source distribution)
Java Runtime: OpenJDK Runtime Environment
JVM: OpenJDK 64-Bit Server VM
Default Encoding: UTF-8
Language: en
Country: null
--></g></svg>